<?xml version="1.0" encoding="iso-8859-1"?>
<!-- Uploaded to: SVG Repo, www.svgrepo.com, Generator: SVG Repo Mixer Tools -->
<svg fill="#000000" height="800px" width="800px" version="1.1" id="Layer_1" xmlns="http://www.w3.org/2000/svg" xmlns:xlink="http://www.w3.org/1999/xlink" 
	 viewBox="0 0 512 512" xml:space="preserve">
<g>
	<g>
		<path d="M512,215.04c0-28.711-21.99-51.2-50.062-51.2H341.259c18.85-46.45,10.978-97.512,9.147-107.583
			c-0.938-27.415-23.532-49.431-51.17-49.431c-28.232,0-51.2,22.968-51.2,51.2c0,22.932-4.941,45.619-21.48,62.425
			c-15.689,15.944-37.992,22.489-55.889,35.564v-9.242c0-9.425-7.641-17.067-17.067-17.067H17.067
			C7.641,129.707,0,137.348,0,146.773v341.333c0,9.425,7.641,17.067,17.067,17.067H153.6c9.425,0,17.067-7.641,17.067-17.067V471.04
			h224.142c28.232,0,51.2-22.968,51.2-51.2c0-6.658-1.278-13.023-3.6-18.863c21.719-5.928,37.733-25.831,37.733-49.403
			c0-7.934-1.815-15.453-5.049-22.163c17.114-8.294,28.943-25.844,28.943-46.104c0-11.082-3.54-21.354-9.547-29.743
			C505.217,244.173,512,230.384,512,215.04z M136.533,471.04h-102.4v-307.2h102.4V471.04z M460.8,232.107H324.267
			c-9.425,0-17.067,7.641-17.067,17.067s7.641,17.067,17.067,17.067h128.569c9.411,0,17.067,7.656,17.067,17.067
			c0,9.411-7.656,17.067-17.067,17.067h-20.48h-3.413H324.267c-9.425,0-17.067,7.641-17.067,17.067s7.641,17.067,17.067,17.067
			h104.676c9.411,0,17.067,7.656,17.067,17.067c0,9.411-7.656,17.067-17.067,17.067h-34.133h-70.542
			c-9.425,0-17.067,7.641-17.067,17.067s7.641,17.067,17.067,17.067h70.542c9.411,0,17.067,7.656,17.067,17.067
			c0,9.411-7.656,17.067-17.067,17.067H170.667V204.07c0.425-1.11,0.752-2.27,0.938-3.477c3.372-5.183,18.137-17.07,32.459-26.094
			c26.606-11.219,45.745-25.704,58.489-44.256c13.201-19.215,19.618-42.837,19.618-72.216c0-9.411,7.656-17.067,17.067-17.067
			c9.411,0,17.067,7.656,17.067,17.067c0,1.135,0.119,2.298,0.345,3.412c0.133,0.662,13.021,66.682-17.911,109.469
			c-3.756,5.195-4.284,12.057-1.366,17.765c2.917,5.708,8.788,9.3,15.197,9.3h149.371c9.081,0,15.929,7.338,15.929,17.067
			C477.867,224.451,470.211,232.107,460.8,232.107z"/>
	</g>
</g>
<g>
	<g>
		<path d="M85.333,402.773c-9.416,0-17.067,7.65-17.067,17.067s7.65,17.067,17.067,17.067c9.416,0,17.067-7.65,17.067-17.067
			S94.75,402.773,85.333,402.773z"/>
	</g>
</g>
</svg>